<?xml version="1.0" standalone="no"?><!DOCTYPE svg PUBLIC "-//W3C//DTD SVG 1.1//EN"
        "http://www.w3.org/Graphics/SVG/1.1/DTD/svg11.dtd">
<svg t="1684072406810" class="icon" viewBox="0 0 1024 1024" version="1.1" xmlns="http://www.w3.org/2000/svg"
     p-id="10236" xmlns:xlink="http://www.w3.org/1999/xlink" width="200" height="200">
    <path d="M575.5 768.8c-34.4 24.5-92.5 24.5-126.9 0-7.8-5.5-18.5-3.7-24 4s-3.7 18.5 4 24c23.4 16.7 53.4 25 83.4 25 30 0 60.1-8.4 83.5-25 7.8-5.5 9.6-16.3 4-24-5.5-7.7-16.3-9.5-24-4z m0 0"
          fill="#ced0d6" p-id="10237"></path>
    <path d="M752 241.5l23.2-79c2-6.8-0.4-14.2-6-18.5C703.9 93.8 610.1 65 512 65s-191.8 28.8-257.2 79c-5.7 4.3-8 11.7-6 18.5l23.3 79.1c-114.9 75.7-190.7 203.8-190.7 349 0 130 64.2 270.1 243.3 277.5 51.6 56.5 117.5 91.5 187.3 91.5 69.8 0 135.8-35 187.3-91.5 179.1-7.4 243.2-147.4 243.2-277.5 0-145.2-75.7-273.4-190.5-349.1z m-299.6-37.8h42.3v-42.3c0-9.5 7.7-17.2 17.2-17.2s17.2 7.7 17.2 17.2v42.3h42.3c9.5 0 17.2 7.7 17.2 17.2s-7.7 17.2-17.2 17.2h-42.3v42.4c0 9.5-7.7 17.2-17.2 17.2s-17.2-7.7-17.2-17.2v-42.4h-42.3c-9.5 0-17.2-7.7-17.2-17.2s7.7-17.2 17.2-17.2zM512 925.1c-137.5 0-258.1-158.1-258.1-338.5 0-1.8 0.1-3.5 0.1-5.3 106.2-11.7 200.6-59.9 257.9-132.4 57.4 72.6 151.8 120.7 258 132.5 0 1.8 0.1 3.5 0.1 5.3 0.1 180.3-120.5 338.4-258 338.4z m0 0"
          fill="#ced0d6" p-id="10238"></path>
</svg>