<?xml version="1.0" standalone="no"?><!DOCTYPE svg PUBLIC "-//W3C//DTD SVG 1.1//EN"
        "http://www.w3.org/Graphics/SVG/1.1/DTD/svg11.dtd">
<svg t="1684242008179" class="icon" viewBox="0 0 1024 1024" version="1.1" xmlns="http://www.w3.org/2000/svg"
     p-id="55400" xmlns:xlink="http://www.w3.org/1999/xlink" width="200" height="200">
    <path d="M917.333333 874.666667h-810.666666a42.666667 42.666667 0 0 0 0 85.333333h810.666666a42.666667 42.666667 0 0 0 0-85.333333zM279.466667 810.666667h465.066666a213.333333 213.333333 0 0 0 213.333334-213.333334V277.333333a213.333333 213.333333 0 0 0-213.333334-213.333333H279.466667a213.333333 213.333333 0 0 0-213.333334 213.333333V597.333333a213.333333 213.333333 0 0 0 213.333334 213.333334z m-128-533.333334a128 128 0 0 1 128-128h465.066666a128 128 0 0 1 128 128V597.333333a128 128 0 0 1-128 128H279.466667a128 128 0 0 1-128-128z"
          fill="#1195db" p-id="55401"></path>
    <path d="M308.906667 562.346667a42.666667 42.666667 0 0 0 60.16 0 42.666667 42.666667 0 0 0 0-60.16l-52.906667-52.906667 55.466667-55.466667a42.666667 42.666667 0 0 0 0-60.16 42.666667 42.666667 0 0 0-60.586667 0L228.266667 416.853333a42.666667 42.666667 0 0 0 0 60.16zM652.373333 562.346667a42.666667 42.666667 0 0 0 60.586667 0l82.773333-83.2a42.666667 42.666667 0 0 0 0-60.16l-80.64-85.333334a42.666667 42.666667 0 1 0-60.16 60.16l52.906667 52.906667-55.466667 55.466667a42.666667 42.666667 0 0 0 0 60.16zM437.333333 577.28a42.666667 42.666667 0 0 0 58.453334-15.36l106.666666-185.173333a42.666667 42.666667 0 0 0-74.24-42.666667l-106.666666 185.173333a42.666667 42.666667 0 0 0 15.786666 58.026667z"
          fill="#1195db" p-id="55402"></path>
</svg>