<?xml version="1.0" standalone="no"?><!DOCTYPE svg PUBLIC "-//W3C//DTD SVG 1.1//EN"
        "http://www.w3.org/Graphics/SVG/1.1/DTD/svg11.dtd">
<svg t="1684233719183" class="icon" viewBox="0 0 1024 1024" version="1.1" xmlns="http://www.w3.org/2000/svg" p-id="2149"
     xmlns:xlink="http://www.w3.org/1999/xlink" width="200" height="200">
    <path d="M512 952.32c243.17952 0 440.32-197.14048 440.32-440.32s-197.14048-440.32-440.32-440.32-440.32 197.14048-440.32 440.32 197.14048 440.32 440.32 440.32z m0 46.08c-268.63104 0-486.4-217.76896-486.4-486.4S243.36896 25.6 512 25.6s486.4 217.76896 486.4 486.4-217.76896 486.4-486.4 486.4z m0-204.8a30.72 30.72 0 1 1 0-61.44 30.72 30.72 0 0 1 0 61.44z m176.64-384c0 47.22176-18.64704 91.5456-51.23072 124.39552-13.32224 14.4384-31.03744 27.4432-53.08416 39.20384A93.11744 93.11744 0 0 0 535.04 655.36a23.04 23.04 0 0 1-46.08 0 139.19744 139.19744 0 0 1 73.6768-122.81344c17.90976-9.55392 31.5904-19.63008 41.12384-30.03392l0.68096-0.7168A130.05312 130.05312 0 0 0 642.56 409.6c0-72.10496-58.45504-130.56-130.56-130.56S381.44 337.49504 381.44 409.6a23.04 23.04 0 1 1-46.08 0c0-97.55648 79.08352-176.64 176.64-176.64 97.55648 0 176.64 79.08352 176.64 176.64z"
          fill="#1296db" p-id="2150"></path>
</svg>