<?xml version="1.0" standalone="no"?><!DOCTYPE svg PUBLIC "-//W3C//DTD SVG 1.1//EN"
        "http://www.w3.org/Graphics/SVG/1.1/DTD/svg11.dtd">
<svg t="1684240013969" class="icon" viewBox="0 0 1024 1024" version="1.1" xmlns="http://www.w3.org/2000/svg"
     p-id="50622" xmlns:xlink="http://www.w3.org/1999/xlink" width="200" height="200">
    <path d="M959.33 218.36v-28.97c0-35.01-28.37-63.38-63.37-63.38H127.9c-35.2 0-63.73 28.54-63.73 63.75v44.51c-0.11 1.97-0.16 3.96-0.16 5.96v547.62C64 848.58 113.41 898 174.15 898h672.03C908.94 898 960 846.93 960 784.16V229.87c0-3.89-0.23-7.73-0.67-11.51z m-511.24-42.35c16.57 0 30 13.43 30 30.01s-13.43 30.01-30 30.01-30-13.43-30-30.01 13.43-30.01 30-30.01z m-128.03 0c16.57 0 30 13.43 30 30.01s-13.43 30.01-30 30.01-30-13.43-30-30.01 13.43-30.01 30-30.01z m-128.02 0c16.57 0 30 13.43 30 30.01s-13.43 30.01-30 30.01-30-13.43-30-30.01 13.43-30.01 30-30.01zM896 784.16c0 27.47-22.35 49.83-49.82 49.83H174.15c-25.45 0-46.15-20.71-46.15-46.16V278.7h768v505.46z"
          fill="#1195db" p-id="50623"></path>
    <path d="M371 736c-8.2 0-16.39-3.13-22.65-9.39l-150-150.23c-12.47-12.49-12.47-32.73 0-45.22L347.9 381.39c12.49-12.51 32.75-12.52 45.25-0.03 12.51 12.49 12.52 32.75 0.04 45.25L266.22 553.77l127.42 127.62c12.49 12.51 12.47 32.77-0.04 45.25-6.24 6.24-14.42 9.36-22.6 9.36zM657 736c-8.18 0-16.36-3.12-22.61-9.36-12.51-12.49-12.52-32.75-0.03-45.25l127.42-127.62-126.96-127.16c-12.49-12.51-12.47-32.77 0.03-45.25 12.5-12.49 32.77-12.47 45.25 0.03l149.54 149.77c12.47 12.49 12.47 32.73 0 45.22l-150 150.23C673.4 732.87 665.2 736 657 736zM463 738.01c-3.54 0-7.13-0.59-10.66-1.84-16.66-5.89-25.4-24.17-19.51-40.83l106-300c5.89-16.66 24.17-25.4 40.83-19.51 16.66 5.89 25.4 24.17 19.51 40.83l-106 300c-4.64 13.14-16.99 21.35-30.17 21.35z"
          fill="#1195db" p-id="50624"></path>
</svg>