<?xml version="1.0" standalone="no"?><!DOCTYPE svg PUBLIC "-//W3C//DTD SVG 1.1//EN"
        "http://www.w3.org/Graphics/SVG/1.1/DTD/svg11.dtd">
<svg t="1684232757804" class="icon" viewBox="0 0 1024 1024" version="1.1" xmlns="http://www.w3.org/2000/svg" p-id="6086"
     xmlns:xlink="http://www.w3.org/1999/xlink" width="200" height="200">
    <path d="M511 63C264.68 63 65 262.68 65 509s199.68 446 446 446 446-199.68 446-446S757.32 63 511 63z m270.12 716.12A382 382 0 1 1 893 509a379.56 379.56 0 0 1-111.88 270.12zM576 448a32 32 0 0 0 0 64h66v1c0 71.68-58.32 130-130 130s-130-58.32-130-130c0-71.35 57.78-129.45 129-130a32 32 0 0 0 0-64h-1c-0.66 0-1.31 0-1.95 0.06C402.73 321.17 318 407.18 318 513c0 107.14 86.86 194 194 194s194-86.86 194-194v-65H576z"
          p-id="6087" fill="#1296db"></path>
</svg>