<?xml version="1.0" standalone="no"?><!DOCTYPE svg PUBLIC "-//W3C//DTD SVG 1.1//EN"
        "http://www.w3.org/Graphics/SVG/1.1/DTD/svg11.dtd">
<svg t="1684233657816" class="icon" viewBox="0 0 1024 1024" version="1.1" xmlns="http://www.w3.org/2000/svg" p-id="1543"
     xmlns:xlink="http://www.w3.org/1999/xlink" width="200" height="200">
    <path d="M102.4 723.8144l253.696-141.0048a128 128 0 0 1 131.328 4.1984l108.032 69.376a76.8 76.8 0 0 0 88.2176-3.6864L921.6 470.272V153.6a51.2 51.2 0 0 0-51.2-51.2H153.6a51.2 51.2 0 0 0-51.2 51.2v570.2144z m0 58.5728V870.4a51.2 51.2 0 0 0 51.2 51.2h716.8a51.2 51.2 0 0 0 51.2-51.2v-335.616l-206.7456 158.5664a128 128 0 0 1-147.0464 6.144l-108.032-69.376a76.8 76.8 0 0 0-78.848-2.56L102.4 782.4384zM153.6 51.2h716.8a102.4 102.4 0 0 1 102.4 102.4v716.8a102.4 102.4 0 0 1-102.4 102.4H153.6a102.4 102.4 0 0 1-102.4-102.4V153.6a102.4 102.4 0 0 1 102.4-102.4z m153.6 384a128 128 0 1 1 0-256 128 128 0 0 1 0 256z m0-51.2a76.8 76.8 0 1 0 0-153.6 76.8 76.8 0 0 0 0 153.6z"
          fill="#1296db" p-id="1544"></path>
</svg>