<?xml version="1.0" standalone="no"?><!DOCTYPE svg PUBLIC "-//W3C//DTD SVG 1.1//EN"
        "http://www.w3.org/Graphics/SVG/1.1/DTD/svg11.dtd">
<svg t="1684393252414" class="icon" viewBox="0 0 1024 1024" version="1.1" xmlns="http://www.w3.org/2000/svg" p-id="3233"
     xmlns:xlink="http://www.w3.org/1999/xlink" width="200" height="200">
    <path d="M457.705043 512.009031C355.109971 614.586041 252.549218 717.164856 149.970402 819.72561c-19.203725 19.207338-19.203725 35.112906 0 54.318438 19.191082 19.191082 35.09665 19.191082 54.302182 0l307.734641-307.734641c102.57701 102.578816 205.139569 205.155825 307.734641 307.734641 19.189276 19.191082 35.09665 19.191082 54.302182 0 19.189276-19.203725 19.189276-35.1111 0-54.318438-102.578816-102.560754-205.155825-205.139569-307.734641-307.716579l307.734641-307.734641c19.189276-19.205532 19.189276-35.1111 0-54.302182-19.207338-19.205532-35.112906-19.205532-54.302182 0-102.595072 102.578816-205.155825 205.155825-307.734641 307.718385-102.578816-102.56256-205.155825-205.141375-307.734641-307.718385-19.207338-19.205532-35.1111-19.205532-54.302182 0-19.203725 19.191082-19.203725 35.09665 0 54.302182 102.578816 102.578816 205.139569 205.155825 307.734641 307.734641z"
          fill="#e6e6e6" p-id="3234"></path>
</svg>