<?xml version="1.0" standalone="no"?><!DOCTYPE svg PUBLIC "-//W3C//DTD SVG 1.1//EN" "http://www.w3.org/Graphics/SVG/1.1/DTD/svg11.dtd"><svg t="1684379773839" class="icon" viewBox="0 0 1024 1024" version="1.1" xmlns="http://www.w3.org/2000/svg" p-id="3030" xmlns:xlink="http://www.w3.org/1999/xlink" width="200" height="200"><path d="M460.809934 844.79413c-212.080871 0-384.002258-171.919581-384.002258-383.986002 0-212.079064 171.921387-384.002258 384.002258-384.002258 212.064615 0 383.986002 171.923193 383.986002 384.002258-0.001806 212.066421-171.923193 383.986002-383.986002 383.986002z m367.914261-106.577786c145.725786-193.251033 117.080952-466.313485-65.571185-625.137975C580.517129-45.744314 306.116268-36.174963 134.97878 134.97878-36.174963 306.118075-45.744314 580.518935 113.078369 763.15301c158.82449 182.652137 431.885136 211.298778 625.136169 65.572991m0 0l176.527247 176.525441c24.985434 24.98724 65.520611 24.98724 90.507851 0 24.985434-24.985434 24.985434-65.520611 0-90.509657l-176.527247-176.525441" fill="#ffffff" p-id="3031"></path><path d="M627.209708 422.397065H294.408354c-27.160122 0-38.396613 11.252747-38.396614 38.411063 0 27.14206 11.236491 38.394807 38.396614 38.394807H627.209708c27.143866 0 38.394807-11.252747 38.394808-38.394807 0-27.158316-11.250941-38.411063-38.394808-38.411063z" fill="#ffffff" p-id="3032"></path></svg>